/* XPM */
static char *d0cf816d0fd2484584432e43eb387041[] = {
/* columns rows colors chars-per-pixel */
"64 64 230 2 ",
"   c None",
".  c #001E5F",
"X  c #03235F",
"o  c #092B5E",
"O  c #15395D",
"+  c #0F315F",
"@  c #001F60",
"#  c #032361",
"$  c #0C2A65",
"%  c #082663",
"&  c #112D67",
"*  c #173468",
"=  c #1C435C",
"-  c #2D575A",
";  c #2C565B",
":  c #3A665A",
">  c #2A4D63",
",  c #1D4160",
"<  c #4C7C53",
"1  c #477556",
"2  c #49765B",
"3  c #446E62",
"4  c #4F8055",
"5  c #538552",
"6  c #568953",
"7  c #5A8D52",
"8  c #548559",
"9  c #5E9251",
"0  c #689E4F",
"q  c #78994E",
"w  c #619651",
"e  c #659B51",
"r  c #689E51",
"t  c #66975C",
"y  c #789D53",
"u  c #608E5E",
"i  c #6EA64F",
"p  c #73AC4F",
"a  c #7AB54F",
"s  c #7EBA4F",
"d  c #77B14F",
"f  c #6CA351",
"g  c #6EA359",
"h  c #73A551",
"j  c #73AC52",
"k  c #73A55D",
"l  c #76AB5A",
"z  c #79A654",
"x  c #76B051",
"c  c #7AB452",
"v  c #7EB951",
"b  c #7CB459",
"n  c #689665",
"m  c #799D67",
"M  c #74976E",
"N  c #75A265",
"B  c #79A074",
"V  c #AA9C3F",
"C  c #BAA53F",
"Z  c #CBAB03",
"A  c #CEAE0A",
"S  c #D0AF09",
"D  c #D3B10C",
"F  c #D9B50F",
"G  c #CFB114",
"H  c #D4B312",
"J  c #DAB614",
"K  c #DDB816",
"L  c #D3B51C",
"P  c #DDB91B",
"I  c #D9B71A",
"U  c #CEB00F",
"Y  c #E2BC1C",
"T  c #E0BA16",
"R  c #CC9D38",
"E  c #D3B621",
"W  c #D6B823",
"Q  c #DCBA23",
"!  c #DBBC2C",
"~  c #D5BA2A",
"^  c #C6AA3B",
"/  c #DABD34",
"(  c #D7B938",
")  c #E2BE23",
"_  c #E2BE2B",
"`  c #E9BE28",
"'  c #E6BC35",
"]  c #DAC13C",
"[  c #DEC034",
"{  c #EBC224",
"}  c #E5C12B",
"|  c #EBC32C",
" . c #E6C024",
".. c #F4C62D",
"X. c #FCCB2F",
"o. c #F5C72B",
"O. c #E5C233",
"+. c #ECC634",
"@. c #EDC83C",
"#. c #E9C639",
"$. c #F4CA34",
"%. c #FDCE33",
"&. c #F4CC3C",
"*. c #FBCE3A",
"=. c #F1C332",
"-. c #FED03A",
";. c #EBC01D",
":. c #879449",
">. c #869C55",
",. c #969D54",
"<. c #92994D",
"1. c #A59B44",
"2. c #81BE4F",
"3. c #81BD52",
"4. c #9CA15B",
"5. c #A9A556",
"6. c #B7AA53",
"7. c #B3A447",
"8. c #849C6C",
"9. c #AFAD72",
"0. c #97A162",
"q. c #CFA341",
"w. c #D3AA4B",
"e. c #D1A647",
"r. c #D6AE51",
"t. c #DBB65A",
"y. c #DDBA5C",
"u. c #DAB455",
"i. c #CEB54E",
"p. c #E0BC50",
"a. c #DEBB64",
"s. c #DEBC68",
"d. c #C4B66E",
"f. c #E1BE62",
"g. c #E0BE6A",
"h. c #85C34F",
"j. c #88C74F",
"k. c #8CCC4F",
"l. c #91D24F",
"z. c #85C351",
"x. c #88C651",
"c. c #8CCC50",
"v. c #8FD050",
"b. c #90D150",
"n. c #DCC548",
"m. c #DEC855",
"M. c #E8C948",
"N. c #F4CE44",
"B. c #F3CE4A",
"V. c #FED244",
"C. c #FED44C",
"Z. c #F5D04C",
"A. c #E4C35C",
"S. c #E8CB56",
"D. c #EDD05A",
"F. c #FDD654",
"G. c #F3D45D",
"H. c #FED75A",
"J. c #FFD95E",
"K. c #F8D455",
"L. c #F0CF5F",
"P. c #E5C363",
"I. c #E4C36B",
"U. c #ECCB6B",
"Y. c #E9CC64",
"T. c #F1CE68",
"R. c #EAD268",
"E. c #F4D362",
"W. c #F9D662",
"Q. c #FDDA63",
"!. c #F3D66C",
"~. c #FEDB6B",
"^. c #F6DA69",
"/. c #ECCD74",
"(. c #E7C976",
"). c #EBD573",
"_. c #EBD67B",
"`. c #F2D373",
"'. c #F4DA74",
"]. c #FDDD74",
"[. c #F4DA7C",
"{. c #FCDE7B",
"}. c #F3D57B",
"|. c #FEE17B",
" X c #FCE374",
".X c #FCE36B",
"XX c #96AA97",
"oX c #8CA489",
"OX c #B2BDB5",
"+X c #ABB8A8",
"@X c #B4B99F",
"#X c #C9BE80",
"$X c #B7C1BA",
"%X c #D5CC99",
"&X c #ECD786",
"*X c #F4DB84",
"=X c #FADE83",
"-X c #F3DB8B",
";X c #F7DD8A",
":X c #EED993",
">X c #FDE284",
",X c #FEE48C",
"<X c #F7E18E",
"1X c #FEE694",
"2X c #F4E29A",
"3X c #FEE79A",
"4X c #FFE99D",
"5X c #F7E496",
"6X c #EFE097",
"7X c #E5D8A4",
"8X c #F4E5A5",
"9X c #FAE7A2",
"0X c #FEE9A4",
"qX c #FFECAB",
"wX c #F6E8AA",
"eX c #FDEDB3",
"rX c #FEEEBB",
"tX c #F5EAB4",
"yX c #FEF0BE",
"uX c #D7D4BC",
"iX c #DBDAC9",
"pX c #FEF1C3",
"aX c #FEF3CC",
"sX c #FEF5D3",
"dX c #FFF8DD",
"fX c #FDF5D9",
"gX c #F8EDC6",
"hX c #FFFAE2",
"jX c #FFFDE9",
"kX c #F4F1E1",
/* pixels */
"                                                                                                                                ",
"                                                                                                                                ",
"                                                    > ; 2 8 t f j j l j g n                                                     ",
"                                              * : 6 l x.x.k.j.3.j v v v x.x.x.3.b n                                             ",
"                                        & , 1 j x.l.d a p d x f w j 6 r j 9 3.l.l.v.z.k                                         ",
"                                    & * 1 c x.p 9 c w 1 i e g w 9 j 6 p g 9 f c j.i j k.c.N                                     ",
"                                  $ - j x.f 6 r 1 f w 9 i i p c c v v p h 0 x.r j w v f j v.z.g                                 ",
"                              $ + 4 c.a w x 9 p 9 r s k.k.j.s v c c v 2.j.b.l.l.h.e x < 6 j 3.z.l                               ",
"                            % O e z.i p 6 w a s v.j.b N B XX+X$X$X$X$X+XXXB N l j.j.a 7 i d 9 i z.3.n                           ",
"                          % = j 2.f 5 c f a b.v N oX$XiXkXhXjXjXjXjXjXjXjXkXiX$XoXN 3.z.s e p i 7 z.z.n                         ",
"                        % O j x.f s 5 f 2.2.N XXiXfXhXhXsXfXhXhXhXhXkXhXfXgXdXhXkXiXXXk h.h.2.4 7 e c x.n                       ",
"                      # O j v x 9 i a h.l oXiXrX6XsX7Xm.n.tXhXdXdXhXdXhXgXm.n.6XaX8XtXiXoXl j.2.c.w 7 x.x.n                     ",
"                    % o e c.5 i f c z.B $XgX8X] R.6XG U -XfXdXdXdXdXdXdXdX8XG A _.&X[ 6XtX@Xk c.3.w f w h.3.                    ",
"                  $ X 4 x.f 7 6 c z.B %X8XtX] Z 6XR.( 6XsXsXsXsXsXsXfXsXsXsX8Xn.n.wXH C 8XeX%XN 3.c.e f i b.b                   ",
"                & # - k.0 7 9 s 2.8.7Xm.).).Z n.tX8XtXsXsXsXsXsXsXsXsXsXaXsXsXyX8XtXR.Z m.2Xn.%XB z.h 6 5 i c.g                 ",
"                # + j l.h.7 i h.B 7X).Z ).R.] n.E G ( R.tXaXaXaXsXaXaXaXaXpX_.] L E ] ] n.5XG D.7Xm z.j h x v x.n               ",
"              $ # 1 l.s r k.2.m %X4X~ A -XwX5XR.Y.&X5X8XyXaXaXaXaXaXaXaXpXpXwX5X&XR.R.<X9X8XG G <X%Xm s d r w j.b               ",
"              # = v l.k.a k.r %X'.,XG E ).] L [ ).yXyXpXpXpXpXpXyXaXpXpXpXpXpXyXyX&X] E [ ).] Z '.,X9.k 2.e p 3.k.n             ",
"            $ . < v i s a c 9.!.] *XE ] W W m.2XrXrXrXyXyXyXyXpXyXpXyXpXpXyXyXyXyXeX9XR.~ E n.L ).M.D.9.a d w 7 2.b             ",
"            X O v k.0 7 a 8.:XM.U =X*X<XR.R.wXeXeXeXeXyXyXyXyXyXyXyXyXyXyXyXyXyXeXeXeXwX).R.[.<X<X~ ! &Xm s 5 < d k.n           ",
"          $ . : 3.6 5 p l d.,X! A [.[.] E ).qXqXeXeXeXeXrXrXrXrXrXeXyXeXyXeXyXeXeXeXqXqX*X/ W R.<XW G |.9.b e r r j.l           ",
"          % X f k.7 7 s 8.[.>XW U S.G E _.qXqXqXqXeXeXeXeXeXeXeXeXyXyXeXeXeXqXeXeXqXqXqX0X<X[ A M.W U ^.[.8.a 5 < x x.          ",
"        & # = v h j.h l d.G.|.[ L [ ]  X3X0X0X0XqXqXqXeXqXeXeXeX&X&XqXeXeXqXqXqXqXqXqX4X4X4X<XS.~ W E {.G.9.p w e d k.t         ",
"        $ . : c 5 w h.y ).} D.R.D.).S.S.1X4X0X0X0X0XqXqXqXqXqX8Xe.^ :XqXqXqXqXqX0XqX0X4X4X3XR.M.!.!.D.'.Q P.y x 5 5 2.l         ",
"        % X 7 j j p a 0.~.L Q |. X[ L [.3X3X3X4X0X6X9X0XqX0XqX9Xt.e.2XqXqXqX0X9X:X9X3X4X3X3X,X[ W ^.>X] A J.0.x e i s 3.        ",
"        X o j x 9 f d d.~.L A E.[ A R.1X1X3X3X4X*Xe.g.0X0X0X0XqX:Xg.0X0X0X0X0X(.^ (.3X3X1X1X1X'.H L ^.L A J.9.j f i i x.        ",
"        . O v p 9 j >.Y.~.W Z O.U M.>X_.*X1X1X4X(.R u.9X9X0X0X0Xg.s.9X9X0X9X9Xg.R I.4X1X1X*X/.=XS.A O.U H W.I.h p 5 0 k.u       ",
"      & X > v 7 9 j >.E.~.#.Z ! M.D.S.q.w.,X1X1X5Xa.a.3X3X3X9X3Xg.g.:X3X3X9X0Xg.t.;X1X1X,Xt.R P.D.M.[ U } Q.T.>.a 7 r k.r       ",
"      $ . - x.9 9 s 4.B.M.J.O.E.S.L U.q.w.;X,X,X1X/.q.&X3X3X3X(.(.&XI.3X3X4X-Xq.I.1X1X,X,Xu.R U.! M.^.O.G.Z.#.>.c w r 2.l       ",
"      $ @ 1 v 9 9 c 5.B.D M.~.W.G } |.`.a.=X,X,X1X/.e.r.-X1X5Xf.-X5Xa.-X1X;Xu.w.f.,X,X,X>Xf./.>X#.A D.~.K.H @.5.x a v v l       ",
"      $ @ 1 z.7 f a 6.F.D D G.M.Z M.|.>X/.f.>X,X,XP.I.I.r.*X(.I.,X1X/.g.-Xu.f.(.y.,X,X>XP.U.|.|.G.A _ W.I Z Z.5.v a e v x       ",
"      X . 1 h 7 7 p i.G.Q Z _ ! L G.].|.{.y.f.,X;Xt./.,Xg.w.t.;X1X,X,Xg.e.f.,X[.r.=X>XI.u.{.{.].W.! L #.Z H F.6.j w w v j       ",
"      % @ 1 j.c v x i.F.N.Z H E M.O.W.].|.`.q.y./.r.*X=XI.u.[.,X;X>X>X<Xy.f.[.>Xu.U.f.R T.{.].~.O.B.Q L Z | F.6.c l.k.p h       ",
"      $ . 1 l.2.c.c 6.C.K.' H B.B.L W.].].{.f.t.r.e.t.t.a.|.>X X X'.'. X{.I.t.y.w.w.y.y.].{.].~.W O.K.I Q K.F.6.v j.0 l.x       ",
"      $ . : l.w 2.3.6.+.@.F.B.J.Q H Q.].].].`.U.{./.).[.>X|. X^.E.E.E.^.].|.[.`.`.].U.U.].].~.~.W H K.B.F.&.| 5.h.k.p b.l       ",
"      $ . - c.l.l.3.5.&.D ) K.K.D L Q.~.~.].].U.].].|.|.|. X^.G.E..X.XR.T.{.{.|.{.].U.].].~.~.~._ Z B.H.' D =.,.x.b.l.l.g       ",
"      & . = k.l.l.j.<.C.) Z J N.A Q Z.Q.~.~.~.`.'.].].{.{.!.L.^.!. X^.S.Y.]. X{.].'.!.~.~.~.Q.Z.O.Z @.} Z H N.<.c.l.l.c.t       ",
"        # O v l.l.k.>.B.*.A Z I H O.} G.Q.~.~.].}.].].].~.E.A.|.3X>X^.D.A.].].].].'.].~.Q.~.Q._ @.D Q Z Z +.N.z v.l.l.c.u       ",
"        # X i l.l.l.q p.V.+.A A } B.H B.Q.Q.Q.~.].].~.~.E.A.p.'.,X>X.XS.E.~.~.~.~.].~.Q.Q.Q.K.H M.@.D Z  .V.i.z l.l.l.x.        ",
"        % X < l.l.l.2.7.V.C.&.P &.N.A O.Q.Q.Q.Q.~.~.~.~.Q.L.S.p.S.A.y.A.^.~.~.~.~.~.Q.Q.Q.Q.B.Z +.V.P +.C.V.7.2.l.l.l.v         ",
"        $ . - k.l.l.x.<.*.| &.C.F.&.Z  .K.J.J.Q.Q.U.!.!.~.W.W.D.S.y.A.D.Q.~.W.T.U.W.Q.Q.J.F.@.Z +.F.V.&.| ..:.c.l.l.k.k         ",
"          # O v l.l.b.h ' ) A J +.N.A  .#.Z.J.J.J.W.T.P.P.f.P.P.A.P.P.A.f.A.P.T.W.Q.J.H.F.+._ Z @.&.P S T i.z l.l.l.k.n         ",
"          % X 7 l.l.l.s 1.*.T Z A Y H } } } F.J.J.J.J.J.Q.W.E.E.E.E.E.E.W.W.Q.J.J.J.H.H.@.I +.H  .D Z D %.1.3.l.v.l.3.          ",
"          & @ ; k.l.l.b.y M.*.T Z Z I N. .A Z.F.H.F.J.J.H.H.J.J.J.J.J.J.J.H.H.J.H.H.F.C.H H N.Y Z Z J o.p.y c.l.l.v.N           ",
"            % o g l.l.l.c 7.-.-.| I I V.} Z } N.C.F.J.F.H.J.F.J.H.H.J.H.H.H.F.F.F.F.N.+.Z P V.) J | *.-.1.v l.l.l.x.            ",
"            $ @ : c.l.l.v.y ( %.*.*.V.V.$.A J } } C.F.F.F.F.F.F.F.H.F.F.F.F.F.F.F.+._ ) Z | C.*.*.*.*.( h b.l.l.l.l             ",
"              % o j l.l.l.z.<.=.T H H Y |  .H +.A } C.C.F.C.F.F.F.F.F.F.F.F.C.C.| A | Y K =.) J F K _ :.j.l.l.l.x.              ",
"              & # - c.v.l.l.x 1.X.T Z Z Z D  .V.J Z +.+.+.C.C.C.C.C.C.C.C.$.| @.A S &.| H Z Z Z J | 1.b l.b.l.b.N               ",
"                $ X 7 l.l.l.l.z q.%.| P F D Y V.+.A D | A H +.C.C.C.C.$.J Z ` J Z | V.{ D D J { X.C h l.l.l.l.3.                ",
"                  % O v l.l.l.c.r ^ %.%.%.%.*.%.%. .D $.{ Z Z  .C.V.$.A Z Y $.H Y $.*.%.*.%.%.%.C h k.l.l.l.c.n                 ",
"                  * # - x.l.l.l.c.q ^ X.| Y F S S S D | *.| J J *.V.Y J ) -.$.J D A D F J { X.C y c.l.l.l.k.N                   ",
"                    & X 2 b.l.k.j.k.q V | ;.K D S D Y $.%.) F D ..$.F H Y $.%.Y F S D F Y ` 1.i k.l.l.l.v.b                     ",
"                      $ o 8 l.a w l.h.i <./ X.X.X.%.X.Y S Z A ` *.*...D Z Z J o.%.X.X.%.( :.z j.k.7 k.l.c                       ",
"                        $ o 8 l.b.k.7 w i q V ' X.o.T F T { %.%.%.%.%.%.o.T F T ;.X.' 1.q v i 5 2.2.l.b                         ",
"                          & o 5 k.d 5 e 0 9 i q V / o.X.X.%.%.%.%.%.%.%.X.X.X...( V q 0 0 0 7 1 w j.b                           ",
"                            & % 3 j 0 p w e 6 f d q :.V ^ ` ..X.X.X...=.' ^ V :.q x 2.0 < 7 j 5 i g                             ",
"                                $ ; g h.w a 1 i w w a p i q q :.:.:.:.q q h c s f w 5 < 0 5 f c n                               ",
"                                  & * 1 a j 9 x < 5 < 9 j c a v x 2.k.l.l.0 6 5 f 8 5 < p d k                                   ",
"                                      & > 6 p j w h.< 1 h 5 7 r 5 a 2.d l.6 7 7 e e c j l n                                     ",
"                                          * > < i j.f 9 e 5 < f 5 p 2.d l.i i k.j c l n                                         ",
"                                                > : 8 w f x f f i 2.k.c.c.v l l n                                               ",
"                                                          3 8 8 7 7 n n                                                         ",
"                                                                                                                                ",
"                                                                                                                                "
};
