/* XPM */
static char *_da99eeb65d447c2b0589174f858e725[] = {
/* columns rows colors chars-per-pixel */
"32 32 194 2 ",
"   c None",
".  c #1A3F5E",
"X  c #14375F",
"o  c #062563",
"O  c #0D2E61",
"+  c #082564",
"@  c #0F3160",
"#  c #103160",
"$  c #234A5C",
"%  c #284F5D",
"&  c #2A525C",
"*  c #325C5B",
"=  c #3B665B",
"-  c #234761",
";  c #49785A",
":  c #4F8156",
">  c #598D53",
",  c #548458",
"<  c #5E9352",
"1  c #659A4F",
"2  c #729A4E",
"3  c #629652",
"4  c #649A52",
"5  c #689E51",
"6  c #619458",
"7  c #6DA64F",
"8  c #72AB4F",
"9  c #7AA64E",
"0  c #7EBB4E",
"q  c #7BB74F",
"w  c #6CA352",
"e  c #6FA852",
"r  c #6DA258",
"t  c #71A453",
"y  c #73AC51",
"u  c #7BAE5B",
"i  c #76AA57",
"p  c #77B050",
"a  c #7BB453",
"s  c #7EB952",
"d  c #7BB25A",
"f  c #BBB23F",
"g  c #D4B20E",
"h  c #DAB614",
"j  c #DEB815",
"k  c #DCB91C",
"l  c #D6B518",
"z  c #E1BA16",
"x  c #E3BC1E",
"c  c #E9BF1C",
"v  c #DCBB24",
"b  c #DBBD2C",
"n  c #C6B337",
"m  c #DBBB35",
"M  c #E3BE24",
"N  c #E5BF29",
"B  c #E2BE35",
"V  c #EBC01E",
"C  c #DEC23B",
"Z  c #E7C025",
"A  c #EDC326",
"S  c #E5C12B",
"D  c #EAC32B",
"F  c #F3C52A",
"G  c #E3C234",
"H  c #EBC533",
"J  c #E4C43C",
"K  c #ECC73A",
"L  c #F1C532",
"P  c #F2C934",
"I  c #F3CA3B",
"U  c #FDCE35",
"Y  c #88A94B",
"T  c #9CA944",
"R  c #98A445",
"E  c #87BC4F",
"W  c #93B64C",
"Q  c #91B94E",
"!  c #81AE57",
"~  c #96AF5D",
"^  c #83BD51",
"/  c #83B356",
"(  c #9DB35E",
")  c #A8AF43",
"_  c #AAB34A",
"`  c #BAB341",
"'  c #B9B445",
"]  c #B8B95E",
"[  c #8BB96A",
"{  c #97B668",
"}  c #9CB973",
"|  c #ADB96C",
" . c #B2BC6E",
".. c #A2BA75",
"X. c #C4B642",
"o. c #C7B94A",
"O. c #CBBE5B",
"+. c #DFBB5E",
"@. c #E0BC5D",
"#. c #DFBB62",
"$. c #E2BF66",
"%. c #85C34F",
"&. c #8AC24F",
"*. c #8FD14F",
"=. c #91D24F",
"-. c #89C551",
";. c #8DCC50",
":. c #86C254",
">. c #DBC343",
",. c #D4C053",
"<. c #DBC558",
"1. c #E3C643",
"2. c #ECC941",
"3. c #E1C74A",
"4. c #E2C84D",
"5. c #EFCD4C",
"6. c #E6C847",
"7. c #F5CE45",
"8. c #F2CF4B",
"9. c #F7D04B",
"0. c #FCD34C",
"q. c #F7D045",
"w. c #E4CB57",
"e. c #ECCE54",
"r. c #E6C35D",
"t. c #E3CC5C",
"y. c #EACC5D",
"u. c #E8C55E",
"i. c #EAD05E",
"p. c #FED654",
"a. c #FDD65B",
"s. c #FFD95E",
"d. c #F4D151",
"f. c #D7C563",
"g. c #E5C365",
"h. c #E4CF65",
"j. c #E3C16B",
"k. c #E8C76D",
"l. c #EAC96E",
"z. c #F2CF65",
"x. c #E9D36C",
"c. c #EAD265",
"v. c #F2D264",
"b. c #F8D563",
"n. c #FEDA65",
"m. c #F2D46D",
"M. c #F5DB69",
"N. c #FCDB6C",
"B. c #F4D965",
"V. c #ECCC72",
"C. c #EBCD7B",
"Z. c #E4C575",
"A. c #EED374",
"S. c #ECD47C",
"D. c #E3D07A",
"F. c #F6D572",
"G. c #FCDC74",
"H. c #F3D57C",
"J. c #F4DB7B",
"K. c #FCDE7A",
"L. c #F7DA74",
"P. c #FAE17D",
"I. c #B7C58F",
"U. c #A8C594",
"Y. c #B9C795",
"T. c #DBD49B",
"R. c #EED282",
"E. c #EBD985",
"W. c #F1DA86",
"Q. c #EFDF93",
"!. c #F5DD94",
"~. c #FEE58F",
"^. c #F4E08F",
"/. c #FCE493",
"(. c #FDE69A",
"). c #FEE89D",
"_. c #DED7A2",
"`. c #C2D2B2",
"'. c #E4DFB6",
"]. c #EEE0A0",
"[. c #FFEAA3",
"{. c #FFECAB",
"}. c #F7E6A6",
"|. c #E5E0B6",
" X c #F5EAB4",
".X c #FEEEB5",
"XX c #F9EEBF",
"oX c #FEF0BE",
"OX c #D4DCC5",
"+X c #FEF1C3",
"@X c #FEF2C9",
"#X c #FEF5D0",
"$X c #FFF7D9",
"%X c #FFFBE3",
/* pixels */
"                                                                ",
"                        ; 6 e y y p d d                         ",
"                    ; 3 y w 8 w 5 w w s s s d                   ",
"                & < e 5 5 w p d d a a 0 8 7 y a                 ",
"              * e e e a [ U.`.OXOXOX`.U.[ y 8 7 y u             ",
"            * y e e [ Y.|.]. X%X%X%XXX].|.I.[ q w p d           ",
"          $ w 4 a .._.<.S.<. X$X$X$X+X<.S.<._.} a w s           ",
"        # 4 8 w ..f.x.>.h.^.@X#X#X#X@XQ.h.>.x.f.} w w s         ",
"      + = %.0 { R.b h.w.S.}.+X@X+X@X+X}.E.w.x.b D.{ t p a       ",
"      # 5 8 / f.w.t.<.W..XoXoXoX+X+XoXoX.X^.4.w.e.O.u 3 a       ",
"    + * 8 4  .e.C >.m.{.{..X.X.X.X.X.X.X.X{.J.4.C 3.| 3 w d     ",
"    o ; t u <.e.6.e.(.[.{.{..X}.Z.}.{.{.{.[.).i.1.e.,.i 5 a     ",
"    @ 3 w ( 1.1.1.c./.).R.!.{.[.j.}.{.!.S.(.(.m.1.1.B ~ 7 a     ",
"    . 5 5 ] 5.l J h.H.(.g.C.).(.Z./.[.C.g./.H.g.1.v I  .3 y     ",
"    % w w o.7.d.J r.k.~.H.#.!.R.S.R./.#.H.~.V.r.J 5.I ' t a     ",
"    & w w o.k G G P.V.H.C.l.g.C./.C.g.l.l.H.l.K.J G k o.a y w   ",
"    & s / <.H M J N.L.@.+.l.k.K.K.J.l.l.+.+.F.N.J N S ,.^ s w   ",
"    $ %.E X.H 8.v b.G.m.F.F.K.M.B.M.L.L.F.m.G.n.v 2.K X.-.&.    ",
"    # :.;.X.x k v 8.N.N.L.K.m.m.P.B.m.G.G.N.N.9.v k k ' ;.;.    ",
"    O e *._ I M H S n.n.N.N.b.y.F.y.b.N.N.n.n.G H M P _ *.-.    ",
"    o : =.W B N K k 9.s.b.m.z.u.r.r.z.z.b.n.9.v H D m Q =.^     ",
"      & ;.;.X.x g M N 0.s.a.a.b.v.a.a.a.a.p.N M h z ` :.*.u     ",
"      @ 5 =.W K D P k S 7.p.p.a.p.a.p.a.7.D k I A J Q =.:.      ",
"        * ;.;.) M h l Z k I q.0.p.0.q.I k Z j h x ) ;.=.d       ",
"        O > =.-.f A c L M z k D 0.H j k x P c Z f &.=.:.        ",
"          . y =.^ ` N z h A A j P j Z A h j M f E *.-.          ",
"            % y %.w R m F c j M U A z V A m R t q :.            ",
"              & 3 w 3 2 ) n B L L L B n T 2 < 3 t               ",
"                - , w 4 < 4 9 Y Y W Y 5 4 > 4 r                 ",
"                    = , w < < 3 7 %.p w w r                     ",
"                          , < 6 e d p i                         ",
"                                                                "
};
