/* XPM */
static char *ac72dc80bebb4b0fb958e9a51d8607a3[] = {
/* columns rows colors chars-per-pixel */
"16 16 170 2 ",
"   c None",
".  c #305A5B",
"X  c #345F5B",
"o  c #39655A",
"O  c #3A655B",
"+  c #3F6E58",
"@  c #467757",
"#  c #467359",
"$  c #457458",
"%  c #497959",
"&  c #4A7D58",
"*  c #508456",
"=  c #598D55",
"-  c #5E9354",
";  c #789F4D",
":  c #609553",
">  c #679751",
",  c #669A53",
"<  c #659A57",
"1  c #679F54",
"2  c #699F54",
"3  c #7AA14C",
"4  c #7BA94F",
"5  c #6BA253",
"6  c #6EA251",
"7  c #6DA453",
"8  c #6EA652",
"9  c #6BA154",
"0  c #6DA454",
"q  c #71A753",
"w  c #75A454",
"e  c #72AB52",
"r  c #75AE53",
"t  c #77AA54",
"y  c #74AC54",
"u  c #7BAD52",
"i  c #79AE5B",
"p  c #7CAF5A",
"a  c #7AAE5E",
"s  c #76B151",
"d  c #79B354",
"f  c #7BB358",
"g  c #AFAE3A",
"h  c #B9BA3B",
"j  c #E5BD1D",
"k  c #E5BD1E",
"l  c #E5BE1F",
"z  c #D5BA2B",
"x  c #D3BA2C",
"c  c #C7B531",
"v  c #C8BD3A",
"b  c #CFBD3F",
"n  c #D0BB31",
"m  c #D6BE32",
"M  c #D3BF3B",
"N  c #E4BD20",
"B  c #E4BD23",
"V  c #E3BD24",
"C  c #E4BD24",
"Z  c #E4BE24",
"A  c #E4BF24",
"S  c #E0BE2B",
"D  c #E2BE2B",
"F  c #E8C125",
"G  c #E5C028",
"H  c #E6C231",
"J  c #E7C435",
"K  c #E6C437",
"L  c #E8C330",
"P  c #EAC430",
"I  c #E9C432",
"U  c #EFC630",
"Y  c #E8C537",
"T  c #E7C63E",
"R  c #F1CA3D",
"E  c #95A743",
"W  c #8AB24C",
"Q  c #8DBE4F",
"!  c #82AF5A",
"~  c #91AF55",
"^  c #98AE57",
"/  c #80B750",
"(  c #88BC51",
")  c #AFBF43",
"_  c #A2B24E",
"`  c #ADBE4B",
"'  c #BFB94B",
"]  c #A0BC5D",
"[  c #90B869",
"{  c #A5BB67",
"}  c #93C64E",
"|  c #9AC048",
" . c #87C653",
".. c #87C554",
"X. c #8CC751",
"o. c #A6C34B",
"O. c #B2C143",
"+. c #A6C179",
"@. c #CFC257",
"#. c #C3C05D",
"$. c #DFC959",
"%. c #E1C440",
"&. c #E5C540",
"*. c #E3C749",
"=. c #E7CA4E",
"-. c #EECD4C",
";. c #F3CD46",
":. c #F7D048",
">. c #FBD34E",
",. c #E7C953",
"<. c #E5CB55",
"1. c #EAC953",
"2. c #F1CD5E",
"3. c #F5D253",
"4. c #FED553",
"5. c #FBD559",
"6. c #C7C66D",
"7. c #DCCD6D",
"8. c #E4CF6B",
"9. c #EECC6A",
"0. c #EFCF6B",
"q. c #EDCC6D",
"w. c #E7D063",
"e. c #F4D060",
"r. c #F7D566",
"t. c #F8D361",
"y. c #FBD661",
"u. c #FBD966",
"i. c #F0D468",
"p. c #F3D468",
"a. c #F0D06F",
"s. c #F3D26E",
"d. c #F8D86C",
"f. c #FDDB6E",
"g. c #EACA72",
"h. c #EACB74",
"j. c #EFD770",
"k. c #EAD67B",
"l. c #EFD17D",
"z. c #F3D672",
"x. c #F0D177",
"c. c #F6DB72",
"v. c #FBDA70",
"b. c #F2D379",
"n. c #F2D678",
"m. c #BDCC8C",
"M. c #CFD79F",
"N. c #F2D682",
"B. c #F1D586",
"V. c #F0DC86",
"C. c #F0D68A",
"Z. c #F4D989",
"A. c #F8DE8D",
"S. c #F7DF94",
"D. c #F8E391",
"F. c #F9E299",
"G. c #DCE1B8",
"H. c #F7E5A1",
"J. c #F7E3A4",
"K. c #F4E5A4",
"L. c #FEEAA8",
"P. c #FCEAAE",
"I. c #FFECAF",
"U. c #FFEDB1",
"Y. c #FCEEB9",
"T. c #E3E8CA",
"R. c #FEF1C2",
"E. c #FCF1C5",
"W. c #FFF2C5",
"Q. c #FFF7D7",
/* pixels */
"              2 7               ",
"        # : 0 i a f s y         ",
"      $ 5 [ m.G.T.M.+.p e       ",
"    o 9 { 7.k.E.Q.K.8.6.! r     ",
"    - ] $.w.H.R.E.Y.V.<.#.t     ",
"  . w @.=.D.I.P.J.U.L.j.*.^ 7   ",
"  + ~ %.,.A.B.F.C.S.Z.n.&.' e   ",
"  @ _ K 1.b.g.l.N.h.x.0.T b u   ",
"  * ` H -.s.q.z.v.j.9.r.J M (   ",
"  & o.S Y u.v.p.i.d.f.3.D v X.  ",
"  X Q m C ;.y.e.2.e.5.I C ) X.  ",
"    9 O.C C R >.4.:.P N n }     ",
"    o / h C k F U N k x | ..    ",
"      % 6 E c S L z g 3 d       ",
"          = > 3 W 4 , <         ",
"                                "
};
